<svg id="energy" xmlns="http://www.w3.org/2000/svg" viewBox="0 0 465 265">
<style>
.c0 {
    fill: #1b1b1b;
    stroke: #1b1b1b00;
}

.c1 {
    fill: rgb(255, 255, 0);
    stroke: rgb(255, 255, 0);
}
</style>
                <g transform="scale(0.1 0.1)" stroke-width="1">
                    <path
                        d="M 11, 6c 41,-23 673,-6 774,-6c 590,0 1180,0 1770,0c 497,0 993,0 1490,0c 68,0 579,-4 591,9c 16,16 9,368 9,421c 0,340 0,680 0,1020c 0,745 9,1173 -11,1189c -22,16 -623,6 -704,6c -560,0 -1120,0 -1680,0c -533,0 -1067,0 -1600,0c -73,0 -630,3 -641,-9c -16,-16 -9,-592 -9,-1181c 0,-333 0,-667 0,-1000c 0,-72 -17,-402 6,-444z"
                        class="c0" />
                    <path
                        d="M 119, 2552c 38,-33 769,-12 881,-12c 713,0 1427,0 2140,0c 400,0 800,0 1200,0c 39,0 218,-7 186,33c -22,27 -513,12 -751,12c -647,0 -1293,0 -1940,0c -557,0 -1113,0 -1670,0c -19,0 -52,-1 -49,-27z"
                        class="c1" />
                    <path
                        d="M 129, 2129c 16,-59 283,5 349,-80c 17,-21 23,-49 37,-71c 101,-163 186,-335 369,-422c 41,-20 94,-43 132,-4c 114,114 -157,390 -241,454c -43,32 -86,66 -135,89c -25,12 -78,25 -94,47c -8,11 -2,27 6,36c 77,96 386,-188 444,-249c 30,-31 130,-177 164,-175c 74,3 -1,108 16,114c 35,12 72,-127 136,-64c 43,43 -61,203 39,206c 147,5 150,-255 294,-324c 29,-14 65,-22 92,1c 52,46 17,125 -22,166c -39,42 -95,76 -130,120c -5,6 -11,19 1,19c 90,0 309,-292 347,-319c 31,-21 50,5 81,-1c 31,-6 56,-50 91,-31c 30,16 43,109 84,98c 47,-12 159,-219 307,-208c 139,10 -34,210 -7,220c 44,16 215,-176 295,-146c 83,30 -114,217 -60,236c 66,23 254,-311 294,-317c 91,-15 -12,184 23,186c 22,1 145,-82 176,-97c 130,-62 258,-124 395,-170c 29,-10 94,-33 102,16c 10,59 -150,85 -191,103c -170,74 -391,157 -527,286c -71,67 -212,737 -424,631c -146,-73 90,-401 147,-472c 14,-18 156,-163 149,-170c -10,-8 -36,23 -43,28c -36,29 -81,78 -131,70c -124,-21 7,-196 -61,-173c -30,10 -153,105 -171,132c -61,92 -148,532 -329,502c -114,-19 -19,-210 15,-260c 37,-56 125,-169 121,-178c -8,-22 -98,19 -118,-31c -28,-71 22,-65 -41,-135c -10,-11 -19,-31 -35,-33c -45,-5 -148,242 -205,256c -60,15 -54,-66 -63,-65c -67,10 -133,132 -236,136c -36,1 -63,-32 -96,-29c -52,5 -100,48 -155,35c -35,-8 -63,-39 -71,-74c -3,-12 -1,-66 -17,-68c -32,-3 -120,245 -207,213c -57,-21 22,-124 -3,-134c -17,-6 -70,58 -84,69c -71,57 -145,124 -231,158c -246,96 -206,-92 -284,-89c -55,2 -279,50 -293,-27z"
                        class="c1" />
                    <path
                        d="M 206, 1819c 4,-58 26,-115 39,-171c 70,-291 205,-511 368,-756c 148,-221 375,-394 598,-532c 290,-180 617,-265 954,-290c 658,-49 1237,185 1711,635c 54,51 329,362 314,419c -17,69 -90,-66 -99,-80c -97,-157 -228,-302 -371,-417c -405,-324 -888,-521 -1410,-521c -131,0 -263,7 -391,38c -603,145 -1066,449 -1395,981c -113,183 -202,395 -252,604c -7,31 -8,90 -31,113c -16,16 -31,7 -34,-12z"
                        class="c1" />
                    <path d="M 602, 2003c 0,-69 164,-243 213,-294c 14,-15 123,-117 139,-76c 26,66 -301,393 -351,373z"
                        class="c0" />
                    <path d="M 1165, 1880c -2,2 -3,3 -5,5z" class="c0" />
                    <path d="M 1611, 1831c 3,-7 47,-69 52,-63c 8,11 -41,62 -51,64z" class="c0" />
                    <path d="M 2168, 2268c 10,-57 59,-116 92,-162c 3,-5 36,-50 39,-41c 6,21 -118,257 -131,211z"
                        class="c0" />
                    <path d="M 2231, 1846c 7,-4 33,-13 39,-3c 6,11 -52,38 -43,7z" class="c0" />
                    <path d="M 2341, 1708c 9,-15 80,-92 100,-82c 12,6 -94,107 -101,86z" class="c0" />
                    <path d="M 2607, 2369c 15,-93 80,-179 133,-253c 8,-11 77,-86 77,-82c 5,46 -189,459 -210,344z"
                        class="c0" />
                    <path
                        d="M 2699, 1360c 36,-65 536,-21 613,-67c 69,-41 195,-552 284,-562c 19,-2 45,0 59,16c 66,79 165,458 229,535c 7,9 17,14 28,17c 32,8 431,21 489,21c 58,0 164,31 99,109c -63,76 -409,318 -424,372c -20,71 166,500 109,577c -14,19 -39,27 -61,21c -104,-27 -442,-273 -509,-276c -33,-1 -145,75 -178,95c -75,47 -251,163 -329,181c -39,9 -81,-7 -85,-51c -3,-37 125,-492 147,-544c 10,-23 31,-36 56,-35c 26,1 54,18 56,46c 5,56 -65,250 -84,315c -4,13 -37,95 -17,100c 48,13 346,-249 454,-228c 64,13 284,162 358,203c 9,5 66,45 71,26c 18,-59 -157,-401 -99,-489c 33,-50 200,-184 254,-227c 17,-14 90,-59 78,-86c -19,-41 -412,13 -485,-56c -36,-34 -197,-441 -213,-434c -36,14 -134,396 -216,451c -45,30 -422,44 -497,44c -53,0 -227,45 -190,-67z"
                        class="c1" />
                    <path d="M 2891, 1814c 2,-4 3,-3 -1,1z" class="c0" />
                </g>
            </svg>